<svg width="20" height="20" viewBox="0 0 20 20" fill="none" xmlns="http://www.w3.org/2000/svg">
<g clip-path="url(#clip0_2981_103231)">
<path d="M8.33301 10.8332C8.69088 11.3117 9.14747 11.7075 9.6718 11.994C10.1961 12.2805 10.7759 12.4508 11.3719 12.4935C11.9678 12.5362 12.566 12.4502 13.1258 12.2414C13.6856 12.0326 14.1939 11.7058 14.6163 11.2832L17.1163 8.78322C17.8753 7.99738 18.2953 6.94487 18.2858 5.85238C18.2763 4.7599 17.8381 3.71485 17.0656 2.94231C16.2931 2.16978 15.248 1.73157 14.1555 1.72208C13.063 1.71259 12.0105 2.13256 11.2247 2.89156L9.79134 4.31656" stroke="#8E97A4" stroke-width="2" stroke-linecap="round" stroke-linejoin="round"/>
<path d="M11.6668 9.16677C11.309 8.68833 10.8524 8.29245 10.328 8.00599C9.80371 7.71953 9.22391 7.54918 8.62796 7.50649C8.03201 7.46381 7.43384 7.5498 6.87405 7.75862C6.31425 7.96744 5.8059 8.29421 5.3835 8.71677L2.8835 11.2168C2.12451 12.0026 1.70453 13.0551 1.71402 14.1476C1.72352 15.2401 2.16172 16.2851 2.93426 17.0577C3.70679 17.8302 4.75184 18.2684 5.84433 18.2779C6.93681 18.2874 7.98932 17.8674 8.77517 17.1084L10.2002 15.6834" stroke="#8E97A4" stroke-width="2" stroke-linecap="round" stroke-linejoin="round"/>
</g>
<defs>
<clipPath id="clip0_2981_103231">
<rect width="20" height="20" fill="white"/>
</clipPath>
</defs>
</svg>
