<svg width="100" height="32" viewBox="0 0 100 32" fill="none" xmlns="http://www.w3.org/2000/svg">
<g clip-path="url(#clip0_2981_103211)">
<path d="M39.5872 27.5308H36.29V3.7251H39.5872V16.1801H38.0902C38.1992 15.1943 38.5876 14.2606 39.1987 13.4834C39.8525 12.6445 40.6957 11.9763 41.6621 11.5355C42.7091 11.0521 43.8508 10.8057 45.0067 10.8199C46.6031 10.8199 47.9627 11.1564 49.0855 11.8341C50.1987 12.5071 51.0846 13.4976 51.6294 14.6824C52.2358 16.0426 52.5295 17.5213 52.4963 19.0095V27.5355H49.2039V19.3412C49.2181 18.4218 49.0381 17.5071 48.6733 16.6587C48.337 15.872 47.7922 15.1896 47.0958 14.6967C46.3378 14.1753 45.433 13.9099 44.514 13.9384C43.6092 13.9241 42.7185 14.1659 41.9511 14.6398C41.1884 15.1137 40.582 15.7962 40.203 16.6066C39.7814 17.4976 39.5682 18.4692 39.5872 19.455V27.5403V27.5308Z" fill="#1C2128"/>
<path d="M59.4883 7.98105C59.1141 7.98105 58.7493 7.88626 58.4224 7.69669C58.0956 7.51186 57.8161 7.24171 57.6266 6.9147C57.4276 6.58295 57.3281 6.2038 57.3281 5.81517C57.3281 5.42655 57.4276 5.0474 57.6266 4.71565C57.8208 4.38863 58.0956 4.11375 58.4224 3.9147C58.7446 3.71565 59.1141 3.61612 59.4883 3.61612C59.8721 3.61138 60.2463 3.71565 60.5732 3.9147C61.0564 4.22276 61.4069 4.70617 61.5491 5.26067C61.6912 5.81517 61.6154 6.40759 61.3406 6.90996C61.1606 7.23224 60.8953 7.50238 60.5732 7.69195C60.2463 7.88152 59.8721 7.98105 59.4883 7.97631V7.98105ZM57.8587 11.2133H61.1559V27.5308H57.8587V11.2133Z" fill="#1C2128"/>
<path d="M69.7398 25.3982L64.4814 11.2134H68.006L72.8001 24.5025C72.8001 24.5451 72.8096 24.5925 72.8286 24.6304C72.8522 24.6684 72.8807 24.7015 72.9186 24.7252C72.9896 24.7774 73.0796 24.8105 73.1696 24.8105C73.2644 24.8105 73.3591 24.7868 73.4349 24.7252C73.5013 24.6684 73.5486 24.5878 73.5676 24.5025L78.3617 11.2134H81.8531L76.5616 25.3982C76.3152 26.1518 75.851 26.8153 75.2304 27.3129C74.6335 27.7537 73.9087 27.9812 73.1696 27.9622C72.4259 27.9717 71.7011 27.7442 71.1042 27.3129C70.4646 26.8248 69.9909 26.1612 69.7398 25.3982Z" fill="#1C2128"/>
<path d="M91.944 27.8957C90.3949 27.9241 88.8648 27.5403 87.5052 26.7867C86.2119 26.0663 85.1412 25.0047 84.4022 23.7251C83.63 22.3744 83.2416 20.8388 83.27 19.2843C83.2511 17.7962 83.6064 16.3222 84.298 15.0047C84.966 13.7298 85.9608 12.6587 87.183 11.9052C88.4905 11.1232 89.9922 10.7251 91.5129 10.7583C93.1567 10.7583 94.5685 11.1185 95.7575 11.8388C96.9276 12.545 97.8846 13.5592 98.5194 14.7677C99.1826 16.0379 99.5189 17.4502 99.5 18.8815V20.2132H85.8518L86.4535 18.8815C86.3682 19.9431 86.5624 21.0142 87.0172 21.981C87.4578 22.9004 88.1494 23.673 89.0164 24.2038C89.8833 24.7346 90.8828 25.0047 91.9014 24.981C92.8678 24.9952 93.8247 24.7677 94.6822 24.3175C95.5254 23.8625 96.2123 23.1658 96.6623 22.3175L99.1921 23.6161C98.5383 24.9526 97.5103 26.0616 96.2265 26.8104C94.9238 27.5497 93.4457 27.9241 91.944 27.9004V27.8957ZM86.6193 18.0711H96.2407C96.2123 17.2606 95.9754 16.4692 95.5586 15.7725C95.1559 15.1137 94.5827 14.5829 93.8958 14.2417C93.152 13.8767 92.3372 13.6967 91.5129 13.7109C90.6744 13.6967 89.8454 13.891 89.1016 14.2796C88.4194 14.6398 87.8415 15.1753 87.4341 15.8341C87.0172 16.5213 86.7377 17.2843 86.6193 18.0758V18.0711Z" fill="#1C2128"/>
<path fill-rule="evenodd" clip-rule="evenodd" d="M13.2007 31.5829C13.6744 31.8531 14.2145 32 14.764 32L14.7687 31.9905C15.3183 31.9905 15.8583 31.8436 16.3368 31.5687L27.4789 25.128C27.9432 24.8578 28.3316 24.4692 28.6206 23.981C28.8906 23.5119 29.0327 22.9716 29.0327 22.4218V9.55924C29.0327 9.01422 28.8859 8.47393 28.6064 7.98104C28.3316 7.51659 27.9432 7.12322 27.4694 6.84834L16.332 0.412322C15.3798 -0.137441 14.1529 -0.137441 13.2007 0.412322L2.07278 6.84834C1.59432 7.12322 1.19638 7.52133 0.921619 7.99526C0.646856 8.47394 0.5 9.01422 0.5 9.56398V22.4218C0.5 22.9716 0.646856 23.5166 0.921619 23.9905C1.19638 24.4692 1.59432 24.8673 2.06804 25.1374L13.2007 31.5829ZM3.62188 9.54029L14.7735 3.10427H14.7782L25.9251 9.56398V16.1664L16.332 10.63C15.3798 10.0803 14.1481 10.0803 13.2007 10.63L3.61457 16.1624L3.62188 9.54029ZM3.61061 19.7543L14.7782 13.322L25.9251 19.7551V22.4265L14.7545 28.8863L3.60767 22.4265L3.61061 19.7543Z" fill="#1C2128"/>
</g>
<defs>
<clipPath id="clip0_2981_103211">
<rect width="99" height="32" fill="white" transform="translate(0.5)"/>
</clipPath>
</defs>
</svg>
